<svg width="512" height="512" xmlns="http://www.w3.org/2000/svg">

 <g>
  <title>background</title>
  <rect fill="none" id="canvas_background" height="402" width="582" y="-1" x="-1"/>
 </g>
 <g>
  <title>Layer 1</title>
  <rect fill="#d83c63" fill-rule="nonzero" y="0" x="-0.000003" width="512" ry="64" rx="64" id="rect2987" height="512"/>
  <path fill="#ffffff" id="path9" d="m425.10137,94.19804l-346.34773,133.58703c-23.63879,9.48433 -23.4986,22.66901 -4.30871,28.54816l86.38017,26.96101l33.05108,101.33207c4.01804,11.09077 2.03732,15.48953 13.68373,15.48953c8.98786,0 12.97504,-4.09778 17.98087,-8.98786c3.1833,-3.11513 22.08378,-21.49087 43.18752,-42.00936l89.85158,66.38643c16.5339,9.12161 28.47227,4.39617 32.58935,-15.35577l58.98059,-277.93941c6.03864,-24.20985 -9.22967,-35.19131 -25.04845,-28.01183zm-250.71988,182.90194l194.70138,-122.83838c9.71969,-5.89458 18.63166,-2.72542 11.31455,3.76981l-166.71528,150.41932l-6.49136,69.23533l-32.80929,-100.58608z"/>
 </g>
</svg>